<mxfile host="65bd71144e">
    <diagram id="q3NBnHAWVTVmXU_XOz1d" name="Page-1">
        <mxGraphModel dx="648" dy="410" grid="1" gridSize="10" guides="1" tooltips="1" connect="1" arrows="1" fold="1" page="1" pageScale="1" pageWidth="850" pageHeight="1100" math="0" shadow="0">
            <root>
                <mxCell id="0"/>
                <mxCell id="1" parent="0"/>
                <mxCell id="37" style="edgeStyle=none;html=1;" edge="1" parent="1" source="35">
                    <mxGeometry relative="1" as="geometry">
                        <mxPoint x="300" y="400" as="targetPoint"/>
                    </mxGeometry>
                </mxCell>
                <mxCell id="38" style="edgeStyle=none;html=1;entryX=1;entryY=0.5;entryDx=0;entryDy=0;endArrow=none;endFill=0;" edge="1" parent="1" source="35" target="36">
                    <mxGeometry relative="1" as="geometry"/>
                </mxCell>
                <mxCell id="40" style="edgeStyle=none;html=1;entryX=0;entryY=0.5;entryDx=0;entryDy=0;endArrow=none;endFill=0;" edge="1" parent="1" source="35" target="39">
                    <mxGeometry relative="1" as="geometry"/>
                </mxCell>
                <mxCell id="35" value="Fields" style="whiteSpace=wrap;html=1;fillColor=#7F00FF;fontSize=8;fontStyle=1" vertex="1" parent="1">
                    <mxGeometry x="280" y="320" width="40" height="40" as="geometry"/>
                </mxCell>
                <mxCell id="47" style="edgeStyle=none;html=1;entryX=0.5;entryY=1;entryDx=0;entryDy=0;endArrow=none;endFill=0;" edge="1" parent="1" source="36" target="43">
                    <mxGeometry relative="1" as="geometry"/>
                </mxCell>
                <mxCell id="36" value="" style="whiteSpace=wrap;html=1;fontSize=8;fontStyle=1" vertex="1" parent="1">
                    <mxGeometry x="200" y="320" width="40" height="40" as="geometry"/>
                </mxCell>
                <mxCell id="51" style="edgeStyle=none;html=1;entryX=0.5;entryY=1;entryDx=0;entryDy=0;endArrow=none;endFill=0;" edge="1" parent="1" source="39" target="41">
                    <mxGeometry relative="1" as="geometry"/>
                </mxCell>
                <mxCell id="39" value="" style="whiteSpace=wrap;html=1;fontSize=8;fontStyle=1" vertex="1" parent="1">
                    <mxGeometry x="360" y="320" width="40" height="40" as="geometry"/>
                </mxCell>
                <mxCell id="52" style="edgeStyle=none;html=1;entryX=0.5;entryY=1;entryDx=0;entryDy=0;endArrow=none;endFill=0;" edge="1" parent="1" source="41" target="44">
                    <mxGeometry relative="1" as="geometry"/>
                </mxCell>
                <mxCell id="41" value="" style="whiteSpace=wrap;html=1;fontSize=8;fontStyle=1" vertex="1" parent="1">
                    <mxGeometry x="360" y="240" width="40" height="40" as="geometry"/>
                </mxCell>
                <mxCell id="53" style="edgeStyle=none;html=1;entryX=0.5;entryY=1;entryDx=0;entryDy=0;endArrow=none;endFill=0;" edge="1" parent="1" source="42" target="45">
                    <mxGeometry relative="1" as="geometry"/>
                </mxCell>
                <mxCell id="54" style="edgeStyle=none;html=1;entryX=0;entryY=0.5;entryDx=0;entryDy=0;endArrow=none;endFill=0;" edge="1" parent="1" source="42" target="41">
                    <mxGeometry relative="1" as="geometry"/>
                </mxCell>
                <mxCell id="55" style="edgeStyle=none;html=1;entryX=0.5;entryY=0;entryDx=0;entryDy=0;endArrow=none;endFill=0;" edge="1" parent="1" source="42" target="35">
                    <mxGeometry relative="1" as="geometry"/>
                </mxCell>
                <mxCell id="56" style="edgeStyle=none;html=1;entryX=1;entryY=0.5;entryDx=0;entryDy=0;endArrow=none;endFill=0;" edge="1" parent="1" source="42" target="43">
                    <mxGeometry relative="1" as="geometry"/>
                </mxCell>
                <mxCell id="57" style="edgeStyle=none;html=1;entryX=0;entryY=1;entryDx=0;entryDy=0;endArrow=none;endFill=0;" edge="1" parent="1" source="42" target="44">
                    <mxGeometry relative="1" as="geometry"/>
                </mxCell>
                <mxCell id="58" style="edgeStyle=none;html=1;entryX=1;entryY=1;entryDx=0;entryDy=0;endArrow=none;endFill=0;" edge="1" parent="1" source="42" target="46">
                    <mxGeometry relative="1" as="geometry"/>
                </mxCell>
                <mxCell id="59" style="edgeStyle=none;html=1;entryX=1;entryY=0;entryDx=0;entryDy=0;endArrow=none;endFill=0;" edge="1" parent="1" source="42" target="36">
                    <mxGeometry relative="1" as="geometry"/>
                </mxCell>
                <mxCell id="60" style="edgeStyle=none;html=1;entryX=0;entryY=0;entryDx=0;entryDy=0;endArrow=none;endFill=0;" edge="1" parent="1" source="42" target="39">
                    <mxGeometry relative="1" as="geometry"/>
                </mxCell>
                <mxCell id="42" value="" style="whiteSpace=wrap;html=1;fontSize=8;fontStyle=1" vertex="1" parent="1">
                    <mxGeometry x="280" y="240" width="40" height="40" as="geometry"/>
                </mxCell>
                <mxCell id="48" style="edgeStyle=none;html=1;entryX=0.5;entryY=1;entryDx=0;entryDy=0;endArrow=none;endFill=0;" edge="1" parent="1" source="43" target="46">
                    <mxGeometry relative="1" as="geometry"/>
                </mxCell>
                <mxCell id="43" value="" style="whiteSpace=wrap;html=1;fontSize=8;fontStyle=1" vertex="1" parent="1">
                    <mxGeometry x="200" y="240" width="40" height="40" as="geometry"/>
                </mxCell>
                <mxCell id="44" value="" style="whiteSpace=wrap;html=1;fontSize=8;fontStyle=1" vertex="1" parent="1">
                    <mxGeometry x="360" y="160" width="40" height="40" as="geometry"/>
                </mxCell>
                <mxCell id="50" style="edgeStyle=none;html=1;entryX=0;entryY=0.5;entryDx=0;entryDy=0;endArrow=none;endFill=0;" edge="1" parent="1" source="45" target="44">
                    <mxGeometry relative="1" as="geometry"/>
                </mxCell>
                <mxCell id="63" style="edgeStyle=none;html=1;entryX=0.5;entryY=1;entryDx=0;entryDy=0;endArrow=none;endFill=0;" edge="1" parent="1" source="45" target="62">
                    <mxGeometry relative="1" as="geometry"/>
                </mxCell>
                <mxCell id="45" value="" style="whiteSpace=wrap;html=1;fontSize=8;fontStyle=1" vertex="1" parent="1">
                    <mxGeometry x="280" y="160" width="40" height="40" as="geometry"/>
                </mxCell>
                <mxCell id="49" style="edgeStyle=none;html=1;entryX=0;entryY=0.5;entryDx=0;entryDy=0;endArrow=none;endFill=0;" edge="1" parent="1" source="46" target="45">
                    <mxGeometry relative="1" as="geometry"/>
                </mxCell>
                <mxCell id="46" value="" style="whiteSpace=wrap;html=1;fontSize=8;fontStyle=1" vertex="1" parent="1">
                    <mxGeometry x="200" y="160" width="40" height="40" as="geometry"/>
                </mxCell>
                <mxCell id="61" value="S" style="ellipse;whiteSpace=wrap;html=1;fontStyle=1" vertex="1" parent="1">
                    <mxGeometry x="285" y="400" width="30" height="30" as="geometry"/>
                </mxCell>
                <mxCell id="62" value="Boss" style="whiteSpace=wrap;html=1;fontSize=8;fontStyle=1;fillColor=#FF3333;" vertex="1" parent="1">
                    <mxGeometry x="280" y="80" width="40" height="40" as="geometry"/>
                </mxCell>
            </root>
        </mxGraphModel>
    </diagram>
</mxfile>